<svg class="prefix__icon" viewBox="0 0 1024 1024" xmlns="http://www.w3.org/2000/svg" width="200" height="200"><path d="M874.667 938.667h-704a21.333 21.333 0 01-21.334-21.334V106.667a21.333 21.333 0 0121.334-21.334h704A21.333 21.333 0 01896 106.667v810.666a21.333 21.333 0 01-21.333 21.334z" fill="#BE80B8"/><path d="M213.333 149.333H832v725.334H213.333z" fill="#F7F8F8"/><path d="M810.667 405.333V384H640V170.667h-21.333V384h-192V170.667h-21.334V384H234.667v21.333h170.666V640H234.667v21.333h170.666v192h21.334v-192h192v192H640v-192h170.667V640H640V405.333h170.667zM618.667 640h-192V405.333h192V640z" fill="#AAAABE"/><path d="M274.624 332.821c9.75 6.379 19.925 9.558 30.485 9.558 10.006 0 18.07-2.795 24.192-8.406 6.123-5.589 9.195-13.013 9.195-22.25 0-9.323-3.115-16.534-9.344-21.654-6.208-5.12-15.232-7.68-27.05-7.68-5.697 0-13.355.448-22.977 1.323V209.92h71.467v16.213h-54.379V267.2c5.419-.32 9.515-.47 12.267-.47 15.317 0 27.243 3.883 35.819 11.627s12.842 18.432 12.842 32.064c0 14.059-4.586 25.43-13.781 34.134s-21.867 13.034-38.059 13.034c-13.568 0-23.786-2.005-30.677-5.994V332.82zm295.701 22.315h-88.32V339.2l42.198-42.09c11.626-11.627 19.413-20.822 23.338-27.606 3.968-6.763 5.91-13.781 5.91-21.035 0-8.256-2.304-14.592-6.934-18.986-4.629-4.416-11.306-6.614-20.053-6.614-12.928 0-25.301 5.504-37.035 16.491v-18.667c11.456-8.81 24.747-13.226 39.958-13.226 13.034 0 23.36 3.541 30.912 10.602s11.349 16.555 11.349 28.502c0 9.002-2.41 17.834-7.275 26.474-4.842 8.662-13.994 19.67-27.498 33.046l-33.11 32.341v.384h66.56v16.32zm-84.821 227.093c9.92 7.68 21.141 11.542 33.643 11.542 10.005 0 17.92-2.454 23.765-7.36 5.824-4.907 8.747-11.499 8.747-19.734 0-18.368-13.142-27.562-39.467-27.562h-12.075v-15.19h11.52c23.318 0 34.987-8.618 34.987-25.877 0-15.936-8.917-23.915-26.73-23.915-10.198 0-19.777 3.435-28.78 10.304v-17.344c9.473-5.504 20.587-8.256 33.28-8.256 12.374 0 22.315 3.243 29.803 9.707 7.51 6.485 11.243 14.87 11.243 25.173 0 19.008-9.685 31.211-29.056 36.651v.384c10.496 1.13 18.795 4.843 24.896 11.115 6.08 6.293 9.13 14.122 9.13 23.488 0 13.056-4.693 23.594-14.1 31.594-9.387 8-21.91 12.011-37.547 12.011-13.76 0-24.854-2.56-33.28-7.68v-19.05zm210.368 242.966a50.773 50.773 0 0025.877 6.933c12.992 0 23.083-5.12 30.251-15.381 7.147-10.24 10.73-24.811 10.73-43.691-.127.128-.255.128-.383 0-6.379 12.117-17.11 18.197-32.15 18.197-12.202 0-22.293-4.181-30.293-12.565s-12.01-19.243-12.01-32.619c0-14.25 4.373-25.941 13.12-35.114s20.074-13.739 34.047-13.739c14.422 0 25.707 5.675 33.835 17.003 8.128 11.349 12.181 27.861 12.181 49.557 0 26.816-5.248 47.445-15.744 61.867s-25.024 21.653-43.605 21.653c-10.197 0-18.816-1.664-25.877-4.97v-17.131zm10.603-81.472c0 9.749 2.496 17.493 7.509 23.189 4.992 5.739 11.904 8.576 20.736 8.576 7.595 0 14.016-2.603 19.2-7.83 5.184-5.205 7.787-11.54 7.787-18.986 0-10.432-2.582-19.093-7.744-25.92a24.299 24.299 0 00-20.374-10.261c-7.829 0-14.293 2.965-19.413 8.896s-7.701 13.397-7.701 22.336z"/><path d="M119.275 421.29L489.6 791.617l148.139 63.488-63.488-148.139L203.925 336.64z" fill="#FFEA91"/><path d="M203.925 336.64l-52.906-52.907a44.885 44.885 0 00-63.488 0l-21.163 21.163a44.885 44.885 0 000 63.488l52.907 52.907 84.65-84.651z" fill="#FF3737"/><path d="M637.739 855.104l-31.51-10.517 21.099-21.099z" fill="#231815"/><path d="M489.6 791.616L119.253 421.269l84.651-84.629 370.347 370.347z" fill="#F0CE00"/><path d="M521.323 759.893L150.997 389.547l31.744-31.744 370.347 370.346z" fill="#FBE557"/><path d="M97.643 399.659l84.629-84.651 21.632 21.632-84.63 84.65z" fill="#96A8A8"/><path d="M129.856 368.363l31.723-31.723 21.162 21.163-31.722 31.722z" fill="#CDE5E5"/></svg>